# xmcd
#
# Track frame offsets:
#	150
#	6974
#	23640
#	36650
#	46479
#	49744
#	62276
#	70821
#	91488
#	98299
#	114384
#	130162
#	145143
#	153218
#
# Disc length: 2308 seconds
#
# Revision: 0
# Processed by: cddbd v1.5.1PL0 Copyright (c) Steve Scherf et al.
# Submitted via: dBpowerAMP V4.0
#
DISCID=ae09020e
DTITLE=jAf prods - Ingeniería Musical
DYEAR=2005
DGENRE=Hip-Hop
TTITLE0=Intro
TTITLE1=Cántico De Un Emigrante
TTITLE2=Lo Que Viene Y Lo Que Se Va
TTITLE3=El Ritual
TTITLE4=Interludio 1
TTITLE5=De Barra En Barra
TTITLE6=Rompiendo Barreras
TTITLE7=Ingeniería Musical
TTITLE8=Interludio 2
TTITLE9=Quizás
TTITLE10=Soy Un Loco
TTITLE11=Música De Gasolinera
TTITLE12=Outro
TTITLE13=Bonus Track: Crónicas De Un Demacrao (lookin4groove remix) con Poesía Sublime
EXTD=
EXTT0=
EXTT1=
EXTT2=
EXTT3=
EXTT4=
EXTT5=
EXTT6=
EXTT7=
EXTT8=
EXTT9=
EXTT10=
EXTT11=
EXTT12=
EXTT13=
PLAYORDER=
